<svg viewBox="0 0 1200 630" xmlns="http://www.w3.org/2000/svg">
  <defs>
    <linearGradient id="basementalhealth" x1="0" y1="0" x2="1" y2="1"><stop offset="0%" stop-color="#12578e"/><stop offset="55%" stop-color="#1e6b4f"/><stop offset="100%" stop-color="#2e7d32"/></linearGradient>
    <filter id="blurmentalhealth" x="-50%" y="-50%" width="200%" height="200%">
      <feGaussianBlur stdDeviation="70"/>
    </filter>
    <filter id="shadowmentalhealth" x="-50%" y="-50%" width="200%" height="200%">
      <feDropShadow dx="0" dy="10" stdDeviation="14" flood-color="#000000" flood-opacity="0.25"/>
    </filter>
    <filter id="grainmentalhealth">
      <feTurbulence type="fractalNoise" baseFrequency="0.9" numOctaves="2" stitchTiles="stitch" result="noise"/>
      <feColorMatrix in="noise" type="matrix" values="0 0 0 0 1  0 0 0 0 1  0 0 0 0 1  0 0 0 0.03 0"/>
    </filter>
  </defs>
  <rect width="1200" height="630" fill="url(#basementalhealth)"/>
  <circle cx="140" cy="520" r="230" fill="#ffffff" opacity="0.07" filter="url(#blurmentalhealth)"/><circle cx="1060" cy="110" r="190" fill="#f9a825" opacity="0.13" filter="url(#blurmentalhealth)"/><circle cx="700" cy="60" r="220" fill="#1e88e5" opacity="0.12" filter="url(#blurmentalhealth)"/>
  <rect width="1200" height="630" filter="url(#grainmentalhealth)"/>
  <g filter="url(#shadowmentalhealth)" transform="translate(450,175)">
    
<g stroke="#ffffff" stroke-width="9" fill="none" stroke-linecap="round" stroke-linejoin="round">
  <path d="M150 270c-95-42-158-116-158-179a94 94 0 0 1 158-68 94 94 0 0 1 158 68c0 63-63 137-158 179Z" opacity="0.95"/>
  <path d="M20 88h45l25-42 32 74 26-48 20 16h42" opacity="0.95"/>
</g>

  </g>
  <g opacity="0.35" transform="translate(48,574)">
    <circle cx="10" cy="10" r="10" fill="#ffffff" opacity="0.9"/>
    <text x="28" y="15" font-family="Montserrat, sans-serif" font-size="15" font-weight="700" fill="#ffffff" letter-spacing="1">HEALTHGISTS</text>
  </g>
</svg>
